<svg id="Layer_1" data-name="Layer 1" xmlns="http://www.w3.org/2000/svg" xmlns:xlink="http://www.w3.org/1999/xlink" viewBox="0 0 2367.11 782.78">
    <defs>
        <style>.cls-1{fill:none;}.cls-1,.cls-9{stroke:#010101;}.cls-1,.cls-10,.cls-9{stroke-miterlimit:10;}.cls-2,.cls-3{fill:#010101;}.cls-3,.cls-4{font-size:458.77px;font-family:ROGFonts-Regular, ROG Fonts;}.cls-4,.cls-5{fill:#343434;}.cls-6{fill:url(#linear-gradient);}.cls-7{fill:url(#linear-gradient-2);}.cls-8{fill:#0b9948;}.cls-10,.cls-9{fill:#fff;}.cls-10{stroke:#231f20;}.cls-11{fill:url(#linear-gradient-3);}</style>
        <linearGradient id="linear-gradient" x1="210.48" y1="352.73" x2="522.06" y2="961.48" gradientUnits="userSpaceOnUse">
            <stop offset="0" stop-color="#fcef44" />
            <stop offset="0.09" stop-color="#fbe343" />
            <stop offset="0.25" stop-color="#f7c141" />
            <stop offset="0.47" stop-color="#f18c3e" />
            <stop offset="0.74" stop-color="#e9423a" />
            <stop offset="0.75" stop-color="#e93f3a" />
        </linearGradient>
        <linearGradient id="linear-gradient-2" x1="1365.35" y1="604.8" x2="1661.8" y2="604.8" gradientTransform="matrix(-0.52, -0.85, -0.94, 0.57, 1846.84, 1073.81)" gradientUnits="userSpaceOnUse">
            <stop offset="0" stop-color="#27783c" />
            <stop offset="0.26" stop-color="#2a7b3c" stop-opacity="0.97" />
            <stop offset="0.47" stop-color="#34843d" stop-opacity="0.87" />
            <stop offset="0.66" stop-color="#44923f" stop-opacity="0.71" />
            <stop offset="0.84" stop-color="#5ba741" stop-opacity="0.48" />
            <stop offset="1" stop-color="#77c043" stop-opacity="0.2" />
        </linearGradient>
        <linearGradient id="linear-gradient-3" x1="518.3" y1="303.4" x2="953.92" y2="303.4" gradientTransform="translate(56.99 -157.55) rotate(8.43)" xlink:href="#linear-gradient-2" />
    </defs>
    <circle class="cls-1" cx="284.82" cy="497.96" r="280.06" />
    <path class="cls-2" d="M631,449.34h65.86V681.86H631Zm119.84,58a46.07,46.07,0,0,0-15-2.24q-18.58,0-28.78,12t-10.19,33.26l-4.71-60.48q9.63-20.83,25-32.37A54.86,54.86,0,0,1,750.86,446a71.86,71.86,0,0,1,26.32,4.59,57.5,57.5,0,0,1,20.5,13.55l-35.84,50A28.51,28.51,0,0,0,750.86,507.35Z" transform="translate(-23.17 -4.52)" />
    <path class="cls-2" d="M834.08,667.41q-18.48-17.8-18.48-54.1,0-34.48,20.72-51.75t62.17-17.24h58.24l3.13,46.81H898.71q-13.89,0-20.83,5.49t-7,16.69q0,11.43,8.74,16.91t26.43,5.49q24.64,0,36.63-5.6t12-17.47l4.71,33.82q-1.35,12.56-11.54,21.29t-25.54,13.1A117.77,117.77,0,0,1,890,685.22Q852.56,685.22,834.08,667.41ZM954.71,534.46q0-16.12-10.75-24.87t-30.47-8.73a81.23,81.23,0,0,0-25.76,4.25A75.93,75.93,0,0,0,865.11,517L827,479.58q13.88-15.9,36.73-24.76T914.39,446q30.47,0,52,10.19t32.82,29.57q11.31,19.38,11.31,46.7V681.86H954.71Z" transform="translate(-23.17 -4.52)" />
    <path class="cls-2" d="M1071,449.34h61.38V681.86H1071ZM1205.38,541q0-17-9.74-26.44T1168,505.11q-17,0-26.32,9.52t-9.3,26.77l-4.7-51.52q10.53-21.94,25.2-32.93t36.85-11q36.73,0,56.9,24.75t20.16,70V681.86h-61.38Z" transform="translate(-23.17 -4.52)" />
    <path class="cls-2" d="M1356.48,673.35q-17.6-11.88-26.77-34.39t-9.19-54.32V547.45q0-32,9.19-54.88t26.77-34.72Q1374.06,446,1398.7,446a56.63,56.63,0,0,1,33.94,11.08q15.34,11.1,24.75,31.48l-4.7,51.52q0-11.87-4-20.16a28.48,28.48,0,0,0-11.76-12.66q-7.74-4.37-18.71-4.37-17.25,0-26.77,11.76t-9.52,33v37q0,20.83,9.52,32.26t26.77,11.42q11,0,18.71-4.26a28,28,0,0,0,11.76-12.32q4-8.06,4-19.49l3.13,53.09q-7.17,19-22,29.46t-35.17,10.42Q1374.05,685.22,1356.48,673.35Zm3.58,93.3q-21.84-9.75-33.94-27.44l41.22-37.86a53.16,53.16,0,0,0,18.82,13.1A58.61,58.61,0,0,0,1409,719q19.26,0,31.47-10.52t12.21-29.13v-230h61.38V674.91q0,32-12.21,54.89a80.94,80.94,0,0,1-35.62,34.72q-23.41,11.87-56.56,11.87Q1381.9,776.39,1360.06,766.65Z" transform="translate(-23.17 -4.52)" />
    <path class="cls-2" d="M1616.78,673a83.48,83.48,0,0,1-36.41-35.62q-12.54-23.4-12.54-56.34V554.84q0-34.49,12-58.91a83.52,83.52,0,0,1,35-37.19q23-12.76,55.44-12.76,30.46,0,52.2,15.23t33,44.24q11.31,29,11.31,70v15.24h-159V549.24h103l-.67-5.37q-2.47-20.16-12.66-31.14t-27.22-11q-22.17,0-34.38,13.22t-12.21,37.41V582q0,23.74,13.33,36.74t37.29,13a71.45,71.45,0,0,0,24.42-4.37,74,74,0,0,0,21.95-12.43l40.1,35.62a133.87,133.87,0,0,1-40.77,25.65,122,122,0,0,1-45.7,9.07Q1640.63,685.22,1616.78,673Z" transform="translate(-23.17 -4.52)" />
    <text class="cls-3" transform="translate(1799.14 672.85)">IT</text>
    <text class="cls-4" transform="translate(1791.89 677.27)">IT</text>
    <polyline class="cls-5" points="1819.43 356.11 1826.66 351.71 1922.68 351.71 1915.77 356.11" />
    <path class="cls-5" d="M1938.94,681.79" transform="translate(-23.17 -4.52)" />
    <polyline class="cls-5" points="1943.29 356.11 1950.59 351.71 2367.11 351.7 2359.87 356.11" />
    <path class="cls-5" d="M2346,403.45" transform="translate(-23.17 -4.52)" />
    <circle class="cls-6" cx="284.82" cy="497.96" r="284.82" />
    <path class="cls-7" d="M406.32,4.52a203.65,203.65,0,0,1,22.27,66.64c4,26.74.64,41.05,2,66.19,1.15,21.53,5.86,52.74,23,90l0,.07a.14.14,0,0,0,0,.06,65.57,65.57,0,0,0,4.8,9.64c20.25,33.32,66.43,42.25,103.17,19.93a82.13,82.13,0,0,0,34.63-41.34h0a2.38,2.38,0,0,1,.12-.35,1,1,0,0,0,.06-.2.46.46,0,0,0,.08-.21c.08-.16.14-.36.22-.57s.11-.31.16-.48c.29-.86.56-1.7.82-2.54.39-1.3.82-2.86,1.26-4.65s8-71.32-38.42-129.41C508.76,12.53,424.83,5.63,406.32,4.52Z" transform="translate(-23.17 -4.52)" />
    <path class="cls-8" d="M611.22,202.24c-.27.85-.54,1.69-.83,2.54C610.62,204.13,610.91,203.27,611.22,202.24Z" transform="translate(-23.17 -4.52)" />
    <path class="cls-9" d="M675.28,301.38" transform="translate(-23.17 -4.52)" />
    <path class="cls-9" d="M1119,246.91" transform="translate(-23.17 -4.52)" />
    <path class="cls-10" d="M557.56,136.94" transform="translate(-23.17 -4.52)" />
    <path class="cls-11" d="M960.16,255.26s-140,101.8-328.59,100.23h-.22a108.56,108.56,0,0,1-71.13-191.07v0a3.85,3.85,0,0,0,.42-.33,1.26,1.26,0,0,1,.24-.19.68.68,0,0,1,.25-.21c.17-.19.42-.37.66-.59a6.9,6.9,0,0,1,.58-.46c1-.82,2-1.61,3.07-2.4,1.58-1.17,3.52-2.55,5.77-4.06C610.3,130,751.59,61.51,960.16,255.26Z" transform="translate(-23.17 -4.52)" />
    <path class="cls-8" d="M565.44,160.2c-1,.79-2.05,1.58-3.07,2.4C563.15,162,564.18,161.14,565.44,160.2Z" transform="translate(-23.17 -4.52)" />
</svg>