<?xml version="1.0" encoding="utf-8"?>
<!-- Generator: Adobe Illustrator 25.0.1, SVG Export Plug-In . SVG Version: 6.00 Build 0)  -->
<svg version="1.1" id="Layer_1" xmlns="http://www.w3.org/2000/svg" xmlns:xlink="http://www.w3.org/1999/xlink" x="0px" y="0px"
stroke-width='1%' stroke-linecap='round' stroke='white'
	viewBox="0 0 1800 1800" style="enable-background:new 0 0 1800 1800;" xml:space="preserve">
<style type="text/css">
	.st0{fill:url(#SVGID_1_);}
	.st1{fill:url(#SVGID_2_);}
	.st2{fill:#0B9948;}
	.st3{fill:#FFFFFF;stroke:#010101;stroke-miterlimit:10;}
	.st4{fill:#FFFFFF;stroke:#231F20;stroke-miterlimit:10;}
	.st5{fill:url(#SVGID_3_);}
</style>
<linearGradient id="SVGID_1_" gradientUnits="userSpaceOnUse" x1="410.3546" y1="826.6263" x2="1001.6439" y2="1981.8833">
	<stop  offset="0" style="stop-color:#FCEF44"/>
	<stop  offset="0.0722" style="stop-color:#FAE445"/>
	<stop  offset="0.2045" style="stop-color:#F7CD45"/>
	<stop  offset="0.3821" style="stop-color:#F2A644"/>
	<stop  offset="0.5957" style="stop-color:#EC733F"/>
	<stop  offset="0.7523" style="stop-color:#E93F3A"/>
</linearGradient>
<circle class="st0" cx="551.43" cy="1102.25" r="540.52"/>
<g>
	
		<linearGradient id="SVGID_2_" gradientUnits="userSpaceOnUse" x1="768.0121" y1="443.3796" x2="1330.614" y2="443.3796" gradientTransform="matrix(-0.5192 -0.8546 -0.9417 0.5721 1861.916 1031.374)">
		<stop  offset="0" style="stop-color:#27783C"/>
		<stop  offset="0.275" style="stop-color:#2A7B3C;stop-opacity:0.78"/>
		<stop  offset="0.4939" style="stop-color:#36833E;stop-opacity:0.6049"/>
		<stop  offset="0.6935" style="stop-color:#499240;stop-opacity:0.4452"/>
		<stop  offset="0.8805" style="stop-color:#61A842;stop-opacity:0.2956"/>
		<stop  offset="1" style="stop-color:#77C043;stop-opacity:0.2"/>
	</linearGradient>
	<path class="st1" d="M738.04,157.23c14.59,27.12,33.86,70.19,42.26,126.47c7.58,50.75,1.2,77.9,3.76,125.6
		c2.2,40.87,11.13,100.1,43.6,170.87c0,0.01,0.05,0.12,0.05,0.13c0.01,0.04,0.02,0.09,0.05,0.13c2.48,6.24,5.51,12.35,9.11,18.28
		c38.42,63.24,126.07,80.19,195.78,37.83c31.68-19.25,54.21-47.45,65.71-78.46l0.04-0.03c0.07-0.25,0.13-0.44,0.23-0.66
		c0.04-0.13,0.1-0.21,0.11-0.38c0.06-0.09,0.14-0.24,0.15-0.4c0.16-0.3,0.27-0.68,0.42-1.08c0.12-0.28,0.21-0.59,0.3-0.91
		c0.55-1.62,1.06-3.23,1.57-4.83c0.73-2.46,1.54-5.43,2.38-8.83c0.87-3.53,15.16-135.33-72.9-245.57
		C932.44,172.43,773.16,159.33,738.04,157.23z"/>
	<path class="st2" d="M1126.87,532.46c-0.51,1.6-1.02,3.2-1.57,4.83C1125.74,536.04,1126.29,534.41,1126.87,532.46z"/>
</g>
<path class="st3" d="M1248.45,720.6"/>
<path class="st4" d="M1025.05,408.54"/>
<g>
	
		<linearGradient id="SVGID_3_" gradientUnits="userSpaceOnUse" x1="926.0522" y1="541.6936" x2="1752.7588" y2="541.6936" gradientTransform="matrix(0.9892 0.1465 -0.1465 0.9892 127.0108 -108.1969)">
		<stop  offset="0" style="stop-color:#27783C"/>
		<stop  offset="0.275" style="stop-color:#2A7B3C;stop-opacity:0.78"/>
		<stop  offset="0.4939" style="stop-color:#36833E;stop-opacity:0.6049"/>
		<stop  offset="0.6935" style="stop-color:#499240;stop-opacity:0.4452"/>
		<stop  offset="0.8805" style="stop-color:#61A842;stop-opacity:0.2956"/>
		<stop  offset="1" style="stop-color:#77C043;stop-opacity:0.2"/>
	</linearGradient>
	<path class="st5" d="M1789.09,633.08c0,0-265.77,193.19-623.59,190.21c-0.13-0.02-0.28,0.03-0.41,0.01
		c-10.3,0.05-20.76-0.67-31.3-2.23c-112.54-16.67-190.27-121.44-173.6-234.05c7.58-51.17,33.38-95.17,69.9-126.34l0.01-0.07
		c0.31-0.23,0.54-0.4,0.78-0.64c0.15-0.11,0.24-0.24,0.46-0.34c0.09-0.12,0.25-0.31,0.47-0.41c0.33-0.36,0.79-0.71,1.26-1.12
		c0.32-0.3,0.7-0.58,1.09-0.87c1.95-1.56,3.88-3.06,5.82-4.56c3.01-2.23,6.69-4.84,10.95-7.71
		C1125.14,395.3,1393.27,265.38,1789.09,633.08z"/>
	<path class="st2" d="M1039.99,452.68c-1.94,1.5-3.87,2.99-5.82,4.56C1035.66,456.02,1037.6,454.45,1039.99,452.68z"/>
</g>
</svg>
