<svg viewBox="0 0 64 64" xmlns="http://www.w3.org/2000/svg"><title></title><g id="21a67d9c-6633-4ce3-81f5-9877f07d39b4"><path d="M33.11,45H59.71a13.31,13.31,0,0,1-26.61,0Z" fill="#fe8b2e" id="38390ee2-2d1d-474f-857d-1113959e44ea"></path><path d="M33.11,45H59.71a13.31,13.31,0,0,1-26.61,0Z" fill="none" id="8630ee6b-cd26-498d-a90d-5c4d327e0ec3" stroke="#001c63" stroke-linecap="round" stroke-linejoin="round" stroke-width="2"></path><path d="M28,45H54.62A13.31,13.31,0,0,1,28,45Z" fill="#feaa2e" id="298885a7-ea0c-42bd-b0be-bd0cf2f27340"></path><path d="M28,45H54.62A13.31,13.31,0,0,1,28,45Z" fill="none" id="7b43058b-f528-457b-8a82-a295a7684b73" stroke="#001c63" stroke-linecap="round" stroke-linejoin="round" stroke-width="2"></path><path d="M30.62,58H4a13.45,13.45,0,0,1,13.3-13A13.45,13.45,0,0,1,30.62,58Z" fill="#fe8b2e" id="fc9f65a4-e865-4389-b961-bd4e1aa2df39"></path><path d="M30.62,58H4a13.45,13.45,0,0,1,13.3-13A13.45,13.45,0,0,1,30.62,58Z" fill="none" id="ab6ebc82-39a5-42af-b4f4-bc3c09d83b07" stroke="#001c63" stroke-linecap="round" stroke-linejoin="round" stroke-width="2"></path><path d="M35.71,58H9.11a13.13,13.13,0,0,1,2.43-7.27A13.34,13.34,0,0,1,22.41,45,13.45,13.45,0,0,1,35.71,58Z" fill="#feaa2e" id="5a271ae9-4db5-45ea-978c-047689feecd6"></path><path d="M35.71,58H18.47a19.81,19.81,0,0,1-6.93-7.27A13.34,13.34,0,0,1,22.41,45,13.45,13.45,0,0,1,35.71,58Z" fill="#fe9a2e" id="c6a836fd-6303-4789-9edd-953818ed4779"></path><path d="M35.71,58H9.11a13.45,13.45,0,0,1,13.3-13A13.45,13.45,0,0,1,35.71,58Z" fill="none" id="f9f01cf9-f507-4f8b-a6df-835dfacb11b5" stroke="#001c63" stroke-linecap="round" stroke-linejoin="round" stroke-width="2"></path><path d="M52.5,38A20.49,20.49,0,1,1,39.92,19.09,20.5,20.5,0,0,1,52.5,38Z" fill="#fe8b2e" id="24f0e011-24d6-42c5-aa65-8f9d4ae2da54"></path><path d="M47.5,35A20.5,20.5,0,0,1,19.08,53.91,20.5,20.5,0,0,1,39.92,19.09,20.45,20.45,0,0,1,47.5,35Z" fill="#feaa2e" id="3dde6887-c980-4c7f-9744-ed2cda4b769b"></path><circle cx="15" cy="44" fill="#fe8b2e" id="3ac9297e-1928-4c0e-a3d6-24cd3c63de99" r="3"></circle><g id="cb095453-66fb-4d82-b28d-8423fcd91495"><circle cx="26" cy="34.5" fill="#001c63" id="b373ba44-7c91-4811-9874-058027a0d6c6" r="1.5"></circle><circle cx="38" cy="34.5" fill="#001c63" id="87edcc8e-03b2-4ebe-802b-17562bf09bf2" r="1.5"></circle></g><circle cx="39.5" cy="50.5" fill="#fe8b2e" id="9ea7058f-aadc-4906-b3a3-bf0140b10182" r="5.5"></circle><circle cx="42" cy="29" fill="#fe8b2e" id="5f3bf323-8b0b-4955-87eb-b89a7ae6e197" r="2"></circle><circle cx="32" cy="53" fill="#fe8b2e" id="fb8d5444-2c0d-4588-84c9-697410a52ea7" r="1"></circle><circle cx="19" cy="47" fill="#fe8b2e" id="624c1259-5fa0-48df-b8ec-ad9e29cd90ef" r="1"></circle><circle cx="32" cy="38" fill="none" id="cb64e678-ba14-4038-96cf-4ed03f01228a" r="20.5" stroke="#001c63" stroke-linecap="round" stroke-linejoin="round" stroke-width="2"></circle><path d="M17.57,30A16.57,16.57,0,0,1,25,23.05" fill="none" id="6a3f2bb0-dc9a-4bb8-bd9d-ea952e9ef6c5" stroke="#fff" stroke-linecap="round" stroke-linejoin="round" stroke-width="2"></path><circle cx="48" cy="36" fill="#fe8b2e" id="88bd1758-c92b-4567-858d-81fc47dab954" r="2"></circle><circle cx="44" cy="45" fill="#fe8b2e" id="c248f84a-0d18-4294-b5ff-333e0a79db57" r="4"></circle><circle cx="47" cy="31" fill="#fe8b2e" id="b963a5e4-7215-4793-8bad-675d741c3d4d" r="2"></circle><path d="M35.2,41.4l-.08.1a4,4,0,0,1-6.24,0l-.08-.1A1.51,1.51,0,0,1,30,39H34A1.51,1.51,0,0,1,35.2,41.4Z" fill="#001c63" id="6600bdb2-11de-47a2-a961-98f26eda04ad"></path><path d="M35.12,41.5a4,4,0,0,1-6.24,0,4,4,0,0,1,6.24,0Z" fill="#ff5c00" id="b756eb3c-cb71-4082-b875-335b628a4c6f"></path><circle cx="16" cy="33" fill="#fff" id="f00a4983-cb31-4d2e-9210-08473ba34862" r="1"></circle><line fill="none" id="a327f939-cc93-4d76-a2dc-00e6b01b0d19" stroke="#001c63" stroke-linecap="round" stroke-linejoin="round" stroke-width="2" x1="32" x2="32" y1="20" y2="15"></line><ellipse cx="36.36" cy="10.57" fill="#35be83" id="cd1ecd69-7f67-416a-aa99-7fd21fd762a4" rx="6.39" ry="2.35" stroke="#001c63" stroke-linecap="round" stroke-linejoin="round" stroke-width="2" transform="translate(3.17 28.8) rotate(-45)"></ellipse><ellipse cx="26.21" cy="9.43" fill="#35be83" id="a5df6d43-515c-4118-990c-eafc82e3778d" rx="3.06" ry="8.31" stroke="#001c63" stroke-linecap="round" stroke-linejoin="round" stroke-width="2" transform="translate(1.01 21.3) rotate(-45)"></ellipse></g></svg>